<?xml version="1.0" encoding="UTF-8"?>
<svg width="40px" height="40px" viewBox="0 0 40 40" version="1.1" xmlns="http://www.w3.org/2000/svg" xmlns:xlink="http://www.w3.org/1999/xlink">
    <!-- Generator: Sketch Beta 44 (41325) - http://www.bohemiancoding.com/sketch -->
    <title>logo-linkedin</title>
    <desc>Created with Sketch Beta.</desc>
    <defs></defs>
    <g id="Homepage" stroke="none" stroke-width="1" fill="none" fill-rule="evenodd">
        <g id="Homepage-Copy-13" transform="translate(-1620.000000, -5190.000000)" fill="#FFFFFF">
            <g id="Group-14" transform="translate(1620.000000, 5190.000000)">
                <g id="Group-11" transform="translate(7.000000, 7.000000)">
                    <polygon id="Path-6" points="6.01999998 9 1 9 1 23.6174851 6.01999998 23.6174851"></polygon>
                    <path d="M6.14764746,2.84630633 C6.11506469,1.23061052 5.05747796,0 3.34011512,0 C1.62275227,0 0.5,1.23061052 0.5,2.84630633 C0.5,4.42853548 1.58956797,5.69458128 3.27494957,5.69458128 L3.30703107,5.69458128 C5.05747796,5.69458128 6.14764746,4.42853548 6.14764746,2.84630633 Z" id="Path-4"></path>
                    <path d="M25.0041657,15.279708 C25.0041657,10.7898489 22.5269009,8.70019531 19.2225107,8.70019531 C16.556415,8.70019531 15.3627591,10.1189749 14.6962853,11.1142744 L14.6962853,9.04383025 L9.67416577,9.04383025 C9.74035185,10.4154595 9.67416577,23.6613153 9.67416577,23.6613153 L14.6962853,23.6613153 L14.6962853,15.4977057 C14.6962853,15.0608372 14.728877,14.6250359 14.8616503,14.3122525 C15.2245706,13.4394857 16.0508938,12.5358675 17.4381942,12.5358675 C19.2560049,12.5358675 19.9826478,13.8762572 19.9826478,15.8405645 L19.9826478,23.6609273 L25.0039651,23.6609273 L25.0041657,15.279708 Z" id="Path-5"></path>
                </g>
            </g>
        </g>
    </g>
</svg>