<?xml version="1.0" encoding="UTF-8"?>
<svg width="40px" height="40px" viewBox="0 0 40 40" version="1.1" xmlns="http://www.w3.org/2000/svg" xmlns:xlink="http://www.w3.org/1999/xlink">
    <!-- Generator: Sketch Beta 44 (41325) - http://www.bohemiancoding.com/sketch -->
    <title>logo-instagram</title>
    <desc>Created with Sketch Beta.</desc>
    <defs>
        <polygon id="path-1" points="5.6892779e-05 0.0410765864 25.9589234 0.0410765864 25.9589234 25.9965864 5.6892779e-05 25.9965864"></polygon>
    </defs>
    <g id="Homepage" stroke="none" stroke-width="1" fill="none" fill-rule="evenodd">
        <g id="Homepage-Copy-13" transform="translate(-1570.000000, -5190.000000)">
            <g id="Group-15" transform="translate(1570.000000, 5190.000000)">
                <g id="Instagram-icon-black" transform="translate(7.000000, 7.000000)">
                    <g id="Group-3">
                        <mask id="mask-2" fill="white">
                            <use xlink:href="#path-1"></use>
                        </mask>
                        <g id="Clip-2"></g>
                        <path d="M12.9795186,0.0409628009 C9.45449891,0.0409628009 9.01249891,0.0558118162 7.62812691,0.119076586 C6.24654267,0.182170678 5.30303282,0.401549234 4.4775186,0.722367615 C3.62395624,1.05405252 2.90010941,1.49787309 2.17853829,2.2194442 C1.45696718,2.94101532 1.01314661,3.66491904 0.6815186,4.51842451 C0.36052954,5.34405252 0.141150985,6.28756236 0.0781706783,7.66908972 C0.0149628009,9.05346171 5.6892779e-05,9.49540481 5.6892779e-05,13.0204245 C5.6892779e-05,16.545558 0.0149628009,16.9875011 0.0781706783,18.3718731 C0.141150985,19.7534004 0.36052954,20.6969103 0.6815186,21.5225383 C1.01314661,22.3760438 1.45696718,23.0999475 2.17853829,23.8215186 C2.90010941,24.5430897 3.62395624,24.9869103 4.4775186,25.3185952 C5.30303282,25.6394136 6.24654267,25.8587921 7.62812691,25.9218862 C9.01249891,25.9850372 9.45449891,26 12.9795186,26 C16.5045383,26 16.9465952,25.9850372 18.3309672,25.9218862 C19.7124945,25.8587921 20.6560044,25.6394136 21.4815755,25.3185952 C22.3351379,24.9869103 23.0589278,24.5430897 23.7804989,23.8215186 C24.50207,23.0999475 24.9458906,22.3760438 25.2775755,21.5225383 C25.5985077,20.6969103 25.8178862,19.7534004 25.8809234,18.3718731 C25.9441313,16.9875011 25.9589803,16.545558 25.9589803,13.0204245 C25.9589803,9.49540481 25.9441313,9.05346171 25.8809234,7.66908972 C25.8178862,6.28756236 25.5985077,5.34405252 25.2775755,4.51842451 C24.9458906,3.66491904 24.50207,2.94101532 23.7804989,2.2194442 C23.0589278,1.49787309 22.3351379,1.05405252 21.4815755,0.722367615 C20.6560044,0.401549234 19.7124945,0.182170678 18.3309672,0.119076586 C16.9465952,0.0558118162 16.5045383,0.0409628009 12.9795186,0.0409628009 M12.9795186,2.37959737 C16.4451991,2.37959737 16.8556236,2.3927965 18.2243501,2.45520788 C19.4898162,2.51295405 20.177081,2.7244814 20.634442,2.90215755 C21.2403501,3.13763676 21.6727352,3.41891466 22.1268534,3.87308972 C22.5811422,4.32732166 22.8624201,4.75964989 23.0977856,5.36550109 C23.2754617,5.82286214 23.4869891,6.51018381 23.5447352,7.775593 C23.6071466,9.14431947 23.6204026,9.55474398 23.6204026,13.0204245 C23.6204026,16.4862188 23.6071466,16.8966433 23.5447352,18.265256 C23.4869891,19.530779 23.2754617,20.2181007 23.0977856,20.6754617 C22.8624201,21.281256 22.5811422,21.7136411 22.1268534,22.1678731 C21.6727352,22.6220481 21.2403501,22.903326 20.634442,23.1387484 C20.177081,23.3164814 19.4898162,23.5280088 18.2243501,23.5856411 C16.8558512,23.6481663 16.4454836,23.6613085 12.9795186,23.6613085 C9.51355361,23.6613085 9.103186,23.6481663 7.73468709,23.5856411 C6.4692779,23.5280088 5.78195624,23.3164814 5.32459519,23.1387484 C4.71874398,22.903326 4.28635886,22.6220481 3.83218381,22.1678731 C3.37806565,21.7136411 3.09678775,21.281256 2.86130853,20.6754617 C2.68357549,20.2181007 2.47210503,19.530779 2.41430197,18.265256 C2.35194748,16.8966433 2.33869147,16.4862188 2.33869147,13.0204245 C2.33869147,9.55474398 2.35194748,9.14431947 2.41430197,7.775593 C2.47210503,6.51018381 2.68357549,5.82286214 2.86130853,5.36550109 C3.09678775,4.75964989 3.37806565,4.32732166 3.83218381,3.87308972 C4.28635886,3.41891466 4.71874398,3.13763676 5.32459519,2.90215755 C5.78195624,2.7244814 6.4692779,2.51295405 7.73468709,2.45520788 C9.10341357,2.3927965 9.51383807,2.37959737 12.9795186,2.37959737" id="Fill-1" fill="#FFFFFF" mask="url(#mask-2)"></path>
                    </g>
                    <path d="M12.9795186,17.3469497 C10.5900788,17.3469497 8.65299344,15.4099212 8.65299344,13.0204245 C8.65299344,10.6309847 10.5900788,8.69395624 12.9795186,8.69395624 C15.3690153,8.69395624 17.3060438,10.6309847 17.3060438,13.0204245 C17.3060438,15.4099212 15.3690153,17.3469497 12.9795186,17.3469497 M12.9795186,6.35532166 C9.29849891,6.35532166 6.31441575,9.33946171 6.31441575,13.0204245 C6.31441575,16.701558 9.29849891,19.6855842 12.9795186,19.6855842 C16.6605383,19.6855842 19.6446214,16.701558 19.6446214,13.0204245 C19.6446214,9.33946171 16.6605383,6.35532166 12.9795186,6.35532166" id="Fill-4" fill="#FFFFFF"></path>
                    <path d="M21.4655886,6.09196499 C21.4655886,6.95212691 20.7682538,7.6495186 19.908035,7.6495186 C19.0478731,7.6495186 18.3504814,6.95212691 18.3504814,6.09196499 C18.3504814,5.23174617 19.0478731,4.53441138 19.908035,4.53441138 C20.7682538,4.53441138 21.4655886,5.23174617 21.4655886,6.09196499" id="Fill-5" fill="#FFFFFF"></path>
                </g>
            </g>
        </g>
    </g>
</svg>