<?xml version="1.0" encoding="UTF-8"?>
<svg width="40px" height="40px" viewBox="0 0 40 40" version="1.1" xmlns="http://www.w3.org/2000/svg" xmlns:xlink="http://www.w3.org/1999/xlink">
    <!-- Generator: Sketch Beta 44 (41325) - http://www.bohemiancoding.com/sketch -->
    <title>logo-twitter</title>
    <desc>Created with Sketch Beta.</desc>
    <defs></defs>
    <g id="Homepage" stroke="none" stroke-width="1" fill="none" fill-rule="evenodd">
        <g id="Homepage-Copy-13" transform="translate(-1670.000000, -5190.000000)" fill-rule="nonzero" fill="#FFFFFF">
            <g id="Group-13" transform="translate(1670.000000, 5190.000000)">
                <g id="Twitter_bird_logo_2012" transform="translate(9.000000, 11.000000)">
                    <path d="M7.24871111,18.8588571 C15.855025,18.8588571 20.5614833,11.6335837 20.5614833,5.36808163 C20.5614833,5.16285837 20.5573585,4.95856571 20.5482746,4.75519592 C21.4618632,4.0859151 22.2559155,3.25070612 22.8822188,2.29993061 C22.043857,2.67755755 21.141671,2.9317698 20.195252,3.04639796 C21.1612621,2.45939102 21.9028928,1.53081837 22.2527778,0.423855102 C21.3487552,0.966952653 20.3476188,1.36167959 19.2816634,1.5747898 C18.427843,0.653173469 17.2122757,0.0767367347 15.8663052,0.0767367347 C13.2824213,0.0767367347 11.1870908,2.20016122 11.1870908,4.81758571 C11.1870908,5.18966 11.2281402,5.5515751 11.3084179,5.89872449 C7.41965886,5.70043429 3.97139372,3.81368776 1.66362206,0.944765306 C1.26179,1.6454698 1.03008685,2.45941429 1.03008685,3.32790816 C1.03008685,4.97292041 1.85612768,6.42514082 3.11225463,7.27471224 C2.34460449,7.25067763 1.62348324,7.03713469 0.993200458,6.6816951 C0.992511708,6.70158849 0.992511708,6.72098322 0.992511708,6.74224461 C0.992511708,9.03853033 2.60533463,10.9557467 4.74627574,11.3901875 C4.35310663,11.4988054 3.93944338,11.5570462 3.5124949,11.5570462 C3.21146524,11.5570462 2.91818018,11.5270216 2.63311421,11.4715385 C3.22879113,13.3554854 4.9561149,14.7264324 7.00399824,14.7647426 C5.40257796,16.0367344 3.38522921,16.7943303 1.19270838,16.7943303 C0.815502958,16.7943303 0.44286625,16.7725881 0.0766272639,16.7286958 C2.1473924,18.0737407 4.6062299,18.858557 7.24896365,18.858557" id="Shape"></path>
                </g>
            </g>
        </g>
    </g>
</svg>